<svg width="96" height="30" viewBox="0 0 96 30" fill="none" xmlns="http://www.w3.org/2000/svg">
<path fill-rule="evenodd" clip-rule="evenodd" d="M59.8527 22.7721C54.295 27.2422 46.237 29.6199 39.2987 29.6199C29.574 29.6199 20.8175 25.7024 14.1902 19.1807C13.67 18.6687 14.1341 17.9688 14.7595 18.3656C21.9093 22.9002 30.7505 25.631 39.8824 25.631C46.0426 25.631 52.8143 24.2376 59.045 21.3574C59.9847 20.9226 60.7725 22.0324 59.8527 22.7721Z" fill="#787878"/>
<path fill-rule="evenodd" clip-rule="evenodd" d="M62.5079 20.6411C61.7795 19.7733 57.6949 20.2297 55.8603 20.434C55.3045 20.4961 55.2182 20.0447 55.7193 19.717C58.9774 17.587 64.316 18.2022 64.9365 18.9148C65.5621 19.6344 64.7731 24.616 61.7193 26.9934C61.2495 27.3593 60.803 27.1643 61.0111 26.681C61.698 25.0843 63.2364 21.5089 62.5079 20.6411Z" fill="#787878"/>
<path fill-rule="evenodd" clip-rule="evenodd" d="M55.1551 3.97439V1.75538C55.1565 1.41764 55.4162 1.19248 55.7287 1.19317L65.8697 1.19214C66.1938 1.19214 66.4541 1.42382 66.4548 1.75264L66.4541 3.65587C66.4517 3.97507 66.1777 4.39176 65.6905 5.05283L60.4377 12.4087C62.3877 12.364 64.4503 12.65 66.2221 13.6268C66.6214 13.8468 66.7285 14.1736 66.76 14.4931V16.8607C66.76 17.1872 66.396 17.5647 66.0135 17.3684C62.8919 15.7648 58.7499 15.5894 55.2986 17.3876C54.9459 17.5719 54.5767 17.1999 54.5767 16.8734V14.6225C54.5767 14.2625 54.5837 13.6464 54.9539 13.0972L61.04 4.5342L55.741 4.53317C55.4173 4.53317 55.1572 4.30664 55.1551 3.97439Z" fill="#787878"/>
<path fill-rule="evenodd" clip-rule="evenodd" d="M20.6258 17.4366H17.732C17.4566 17.4185 17.2363 17.2106 17.2144 16.9458L17.2163 2.0429C17.2163 1.74482 17.4661 1.50636 17.7747 1.50636L20.4698 1.5057C20.7518 1.52019 20.9783 1.73428 20.996 2.00601V3.95192H21.0502C21.7527 2.07023 23.0763 1.19214 24.8591 1.19214C26.6692 1.19214 27.8037 2.07023 28.6142 3.95192C29.3164 2.07023 30.9102 1.19214 32.6122 1.19214C33.8278 1.19214 35.1514 1.69377 35.9619 2.82284C36.8804 4.07708 36.6917 5.89618 36.6917 7.49559L36.6894 16.9C36.6894 17.1978 36.4392 17.4366 36.1313 17.4366H33.2406C32.95 17.4178 32.7209 17.1869 32.7209 16.9014L32.7202 9.0008C32.7202 8.37369 32.7744 6.80556 32.6392 6.20974C32.4232 5.20615 31.7748 4.92388 30.9374 4.92388C30.2352 4.92388 29.5055 5.39422 29.2084 6.14716C28.9113 6.89976 28.9386 8.154 28.9386 9.0008V16.9C28.9386 17.1978 28.6884 17.4366 28.3802 17.4366H25.4897C25.1992 17.4178 24.9701 17.1869 24.9701 16.9014L24.9671 9.0008C24.9671 7.33881 25.2373 4.89259 23.1843 4.89259C21.104 4.89259 21.1851 7.2759 21.1851 9.0008L21.1841 16.9C21.1845 17.1978 20.9343 17.4366 20.6258 17.4366Z" fill="#787878"/>
<path fill-rule="evenodd" clip-rule="evenodd" d="M75.6678 3.51348C73.555 3.51348 73.4215 6.51747 73.4215 8.39098C73.4215 10.2648 73.3948 14.2707 75.6411 14.2707C77.8608 14.2707 77.9674 11.0401 77.9674 9.06954C77.9674 7.77756 77.9141 6.22705 77.5398 4.99919C77.2184 3.93317 76.5766 3.51348 75.6678 3.51348ZM75.6411 0.379883C79.893 0.379883 82.1922 4.1917 82.1922 9.03731C82.1922 13.7211 79.6525 17.4366 75.6411 17.4366C71.4696 17.4366 69.1967 13.6244 69.1967 8.87582C69.1967 4.09467 71.4962 0.379883 75.6411 0.379883Z" fill="#787878"/>
<path fill-rule="evenodd" clip-rule="evenodd" d="M87.3089 17.4366H84.3537C84.0566 17.4178 83.8214 17.1869 83.8214 16.9014L83.8167 1.99283C83.8415 1.72045 84.0875 1.50636 84.3863 1.50636L87.138 1.5057C87.3967 1.51854 87.6104 1.69179 87.6649 1.92301V4.20256H87.7207C88.5515 2.1641 89.714 1.19214 91.7631 1.19214C93.0919 1.19214 94.3937 1.66248 95.2244 2.94833C96 4.13999 96 6.14716 96 7.58946V16.9669C95.9663 17.2314 95.7244 17.4366 95.4313 17.4366H92.4576C92.183 17.4191 91.9616 17.2218 91.9293 16.9669V8.87531C91.9293 7.24461 92.1231 4.8613 90.074 4.8613C89.354 4.8613 88.6894 5.33164 88.3577 6.05296C87.9425 6.96234 87.8866 7.87173 87.8866 8.87531V16.9C87.8812 17.1978 87.6248 17.4366 87.3089 17.4366Z" fill="#787878"/>
<path fill-rule="evenodd" clip-rule="evenodd" d="M51.2366 17.0376C51.0415 17.2125 50.7604 17.2242 50.5406 17.1061C49.5622 16.2921 49.3868 15.9158 48.8522 15.1413C47.2349 16.7901 46.0895 17.2844 43.9954 17.2844C41.5154 17.2844 39.5861 15.7526 39.5861 12.6891C39.5861 10.2955 40.8812 8.6681 42.7277 7.87012C44.3259 7.16779 46.5583 7.04036 48.2667 6.84873V6.46579C48.2667 5.76379 48.3219 4.93403 47.9085 4.32768C47.55 3.78522 46.8613 3.56181 46.2549 3.56181C45.1315 3.56181 44.1327 4.13805 43.8871 5.33236C43.8363 5.5979 43.6425 5.86078 43.3756 5.87416L40.5203 5.56513C40.2794 5.51061 40.0114 5.31697 40.0809 4.94875C40.7372 1.48156 43.8651 0.434082 46.6685 0.434082C48.1013 0.434082 49.9752 0.817021 51.1049 1.90229C52.5381 3.24275 52.4001 5.02968 52.4001 6.97648V11.5701C52.4001 12.9517 52.9738 13.558 53.5121 14.3025C53.7002 14.5707 53.7427 14.8898 53.5024 15.0858C52.9006 15.5904 51.8317 16.5202 51.2433 17.0439L51.2366 17.0376ZM48.2667 9.84869C48.2667 10.9978 48.2941 11.955 47.7154 12.9764C47.2469 13.8062 46.5031 14.3165 45.6761 14.3165C44.5464 14.3165 43.8851 13.4547 43.8851 12.1784C43.8851 9.66742 46.1356 9.21057 48.2667 9.21057V9.84869Z" fill="#787878"/>
<path fill-rule="evenodd" clip-rule="evenodd" d="M12.6202 17.0376C12.425 17.2125 12.1437 17.2242 11.9241 17.1061C10.9454 16.2921 10.7704 15.9158 10.2354 15.1413C8.61882 16.7901 7.47338 17.2844 5.37898 17.2844C2.89864 17.2844 0.969971 15.7526 0.969971 12.6891C0.969971 10.2955 2.26511 8.6681 4.11124 7.87012C5.70978 7.16779 7.94184 7.04036 9.65031 6.84873V6.46579C9.65031 5.76379 9.70545 4.93403 9.29211 4.32768C8.93391 3.78522 8.24458 3.56181 7.63878 3.56181C6.51539 3.56181 5.51597 4.13805 5.27105 5.33236C5.21992 5.5979 5.02646 5.86078 4.75914 5.87416L1.90423 5.56513C1.66298 5.51061 1.39467 5.31697 1.4645 4.94875C2.12042 1.48156 5.24866 0.434082 8.05178 0.434082C9.48491 0.434082 11.3588 0.817021 12.4888 1.90229C13.9217 3.24275 13.784 5.02968 13.784 6.97648V11.5701C13.784 12.9517 14.357 13.558 14.8957 14.3025C15.0835 14.5707 15.1259 14.8898 14.886 15.0858C14.2845 15.5904 13.2149 16.5202 12.6272 17.0439L12.6202 17.0376ZM9.65031 9.84869C9.65031 10.9978 9.67805 11.955 9.09898 12.9764C8.63085 13.8062 7.88671 14.3165 7.06004 14.3165C5.93031 14.3165 5.26871 13.4547 5.26871 12.1784C5.26871 9.66742 7.51949 9.21057 9.65031 9.21057V9.84869Z" fill="#787878"/>
</svg>
