<svg width="98" height="32" viewBox="0 0 98 32" fill="none" xmlns="http://www.w3.org/2000/svg">
<path d="M41.9942 16.8399C41.9942 21.4438 38.3926 24.8363 33.9726 24.8363C29.5526 24.8363 25.951 21.4438 25.951 16.8399C25.951 12.2036 29.5526 8.84351 33.9726 8.84351C38.3926 8.84351 41.9942 12.2036 41.9942 16.8399ZM38.4827 16.8399C38.4827 13.9629 36.3953 11.9945 33.9726 11.9945C31.5499 11.9945 29.4624 13.9629 29.4624 16.8399C29.4624 19.688 31.5499 21.6853 33.9726 21.6853C36.3953 21.6853 38.4827 19.6844 38.4827 16.8399Z" fill="#787878"/>
<path d="M59.2993 16.8399C59.2993 21.4438 55.6977 24.8363 51.2777 24.8363C46.8577 24.8363 43.256 21.4438 43.256 16.8399C43.256 12.2072 46.8577 8.84351 51.2777 8.84351C55.6977 8.84351 59.2993 12.2036 59.2993 16.8399ZM55.7878 16.8399C55.7878 13.9629 53.7004 11.9945 51.2777 11.9945C48.855 11.9945 46.7675 13.9629 46.7675 16.8399C46.7675 19.688 48.855 21.6853 51.2777 21.6853C53.7004 21.6853 55.7878 19.6844 55.7878 16.8399Z" fill="#787878"/>
<path d="M75.8834 9.32661V23.6826C75.8834 29.588 72.4007 31.9999 68.2835 31.9999C64.4079 31.9999 62.0753 29.4077 61.1957 27.2878L64.2529 26.0152C64.7973 27.3167 66.1312 28.8525 68.2799 28.8525C70.9153 28.8525 72.5485 27.2266 72.5485 24.1657V23.0157H72.4259C71.64 23.9855 70.1258 24.8327 68.215 24.8327C64.2168 24.8327 60.5539 21.35 60.5539 16.8687C60.5539 12.355 64.2168 8.84351 68.215 8.84351C70.1222 8.84351 71.6364 9.69073 72.4259 10.6317H72.5485V9.33021H75.8834V9.32661ZM72.7973 16.8687C72.7973 14.0531 70.919 11.9945 68.5287 11.9945C66.106 11.9945 64.0762 14.0531 64.0762 16.8687C64.0762 19.6556 66.106 21.6853 68.5287 21.6853C70.919 21.6853 72.7973 19.6556 72.7973 16.8687Z" fill="#787878"/>
<path d="M81.3813 0.912109V24.3461H77.9564V0.912109H81.3813Z" fill="#787878"/>
<path d="M94.7279 19.4719L97.4534 21.2889C96.5738 22.5904 94.4539 24.8329 90.791 24.8329C86.2484 24.8329 82.8559 21.3214 82.8559 16.8365C82.8559 12.0812 86.2772 8.84009 90.398 8.84009C94.5476 8.84009 96.5774 12.1425 97.2407 13.9271L97.6049 14.8356L86.9154 19.2628C87.7337 20.8671 89.0064 21.6855 90.791 21.6855C92.5792 21.6855 93.8194 20.8058 94.7279 19.4719ZM86.3385 16.5949L93.4841 13.6278C93.0911 12.6292 91.9086 11.9334 90.517 11.9334C88.7324 11.9334 86.2484 13.5089 86.3385 16.5949Z" fill="#787878"/>
<path d="M12.9866 14.7598V11.3673H24.4187C24.5305 11.9585 24.5882 12.658 24.5882 13.4151C24.5882 15.9603 23.8924 19.1077 21.6499 21.3502C19.4688 23.6215 16.6819 24.8328 12.9902 24.8328C6.14744 24.8328 0.393494 19.2591 0.393494 12.4164C0.393494 5.57368 6.14744 0 12.9902 0C16.7756 0 19.4724 1.48535 21.4985 3.42136L19.1046 5.81523C17.6517 4.45246 15.6833 3.39252 12.9866 3.39252C7.98971 3.39252 4.08164 7.41956 4.08164 12.4164C4.08164 17.4132 7.98971 21.4403 12.9866 21.4403C16.2277 21.4403 18.0735 20.1388 19.256 18.9563C20.215 17.9973 20.8459 16.6273 21.0947 14.7562L12.9866 14.7598Z" fill="#787878"/>
</svg>
