<svg width="130" height="32" viewBox="0 0 130 32" fill="none" xmlns="http://www.w3.org/2000/svg">
<path fill-rule="evenodd" clip-rule="evenodd" d="M73.6217 21.0073C73.6217 21.2652 73.5976 21.5328 73.5303 21.7644C73.2459 22.7328 72.2681 23.5531 71.0476 23.5531C70.0311 23.5531 69.2194 22.9576 69.2194 21.7012C69.2194 19.7795 71.2787 19.2487 73.6217 19.2614V21.0073ZM77.2958 17.6592C77.2958 14.4886 75.978 11.7 71.5281 11.7C69.2442 11.7 67.4292 12.3593 66.4397 12.9465L67.1637 15.4946C68.0683 14.9074 69.5104 14.4217 70.8743 14.4217C73.1325 14.4164 73.5018 15.7367 73.5018 16.5826V16.7826C68.5795 16.7743 65.47 18.5261 65.47 22.096C65.47 24.2764 67.0547 26.32 69.8073 26.32C71.5025 26.32 72.9182 25.6245 73.7665 24.5117H73.8521C73.8521 24.5117 74.413 26.9275 77.51 26.0049C77.3491 24.9982 77.2958 23.9238 77.2958 22.6336V17.6592Z" fill="#787878"/>
<path fill-rule="evenodd" clip-rule="evenodd" d="M0.110046 8.26001C0.110046 8.26001 3.30142 21.2652 3.81093 23.3763C4.40537 25.8404 5.47666 26.7462 8.56569 26.1363L10.558 18.0729C11.0639 16.0686 11.4021 14.6417 11.7266 12.6042H11.7839C12.0111 14.6627 12.337 16.0751 12.7529 18.0794C12.7529 18.0794 13.5636 21.7394 13.9795 23.6621C14.3968 25.5834 15.5552 26.796 18.5804 26.1363L23.33 8.26001H19.4956L17.8742 15.9885C17.4372 18.2375 17.0438 19.9964 16.7375 22.0548H16.6838C16.4059 20.0166 16.0546 18.3284 15.6104 16.1372L13.9229 8.26001H9.92658L8.12222 15.938C7.61053 18.2714 7.13222 20.1559 6.82739 22.1429H6.77295C6.46085 20.2714 6.04497 17.9033 5.59714 15.645C5.59714 15.645 4.52295 10.1539 4.14698 8.26001" fill="#787878"/>
<path fill-rule="evenodd" clip-rule="evenodd" d="M30.6198 21.0073C30.6198 21.2652 30.5986 21.5328 30.5284 21.7644C30.2439 22.7328 29.2677 23.5531 28.0473 23.5531C27.0286 23.5531 26.2199 22.9576 26.2199 21.7012C26.2199 19.7795 28.2776 19.2487 30.6198 19.2614V21.0073ZM34.2936 17.6592C34.2936 14.4886 32.9766 11.7 28.527 11.7C26.2411 11.7 24.4283 12.3593 23.4375 12.9465L24.1629 15.4946C25.0674 14.9074 26.508 14.4217 27.8732 14.4217C30.132 14.4164 30.5013 15.7367 30.5013 16.5826V16.7826C25.5786 16.7743 22.47 18.5261 22.47 22.096C22.47 24.2764 24.0532 26.32 26.8056 26.32C28.4992 26.32 29.9163 25.6245 30.7653 24.5117H30.8479C30.8479 24.5117 31.411 26.9275 34.51 26.0049C34.3462 24.9982 34.2936 23.9238 34.2936 22.6336V17.6592Z" fill="#787878"/>
<path fill-rule="evenodd" clip-rule="evenodd" d="M40.53 22.4849V8.26001H37.09V26.32H40.53" fill="#787878"/>
<path fill-rule="evenodd" clip-rule="evenodd" d="M89.55 8.26001V21.3631C89.55 23.1665 89.8986 24.4335 90.6472 25.2072C91.2986 25.8819 92.3737 26.32 93.6617 26.32C94.7596 26.32 95.8384 26.1178 96.3446 25.9335L96.2967 23.1149C95.9194 23.2052 95.4832 23.2776 94.8886 23.2776C93.6271 23.2776 93.2041 22.4918 93.2041 20.8691V15.8584H96.43V12.4597H93.2041V8.26001" fill="#787878"/>
<path fill-rule="evenodd" clip-rule="evenodd" d="M80.09 12.8638V26.3201H83.7736V19.4292C83.7736 19.0575 83.797 18.7327 83.8538 18.4362C84.128 16.9927 85.2112 16.0713 86.7689 16.0713C87.1957 16.0713 87.5019 16.1176 87.83 16.166V12.6432C87.5544 12.5854 87.3655 12.5601 87.0196 12.5601C85.6431 12.5601 84.079 13.4626 83.4227 15.4016H83.3218V12.8638" fill="#787878"/>
<path fill-rule="evenodd" clip-rule="evenodd" d="M43.11 12.8638V26.3201H46.8678V18.4283C46.8678 18.0587 46.9109 17.666 47.0447 17.3275C47.3568 16.5327 48.1164 15.6019 49.3278 15.6019C50.844 15.6019 51.5538 16.8488 51.5538 18.651V26.3201H55.3071V18.3328C55.3071 17.9799 55.3568 17.5553 55.4646 17.2415C55.7723 16.3374 56.5906 15.6019 57.7188 15.6019C59.2565 15.6019 59.9938 16.8285 59.9938 18.9468V26.3201H63.75V18.395C63.75 14.2141 61.5687 12.5601 59.1079 12.5601C58.0168 12.5601 57.1562 12.8255 56.3788 13.2905C55.724 13.6818 55.1391 14.2358 54.627 14.9662H54.572C53.9774 13.5162 52.5809 12.5601 50.76 12.5601C48.4218 12.5601 47.3717 13.7129 46.7325 14.6921H46.6768V12.8638" fill="#787878"/>
<path fill-rule="evenodd" clip-rule="evenodd" d="M116.637 10.84C117.372 10.84 117.98 10.4665 118.062 9.98457L118.79 1.96301C118.79 1.17077 117.837 0.52002 116.639 0.52002C115.443 0.52002 114.49 1.17077 114.49 1.96301L115.217 9.98457C115.297 10.4665 115.905 10.84 116.642 10.84" fill="#787878"/>
<path fill-rule="evenodd" clip-rule="evenodd" d="M111.66 13.4031C112.014 12.7362 111.987 11.9845 111.612 11.6522L105.097 6.68863C104.42 6.26459 103.404 6.77652 102.826 7.86283C102.25 8.94682 102.35 10.1588 103.027 10.5844L110.24 14.2319C110.694 14.4146 111.308 14.0646 111.662 13.4" fill="#787878"/>
<path fill-rule="evenodd" clip-rule="evenodd" d="M120.757 13.4C121.113 14.0646 121.725 14.4146 122.177 14.2319L129.393 10.5843C130.072 10.1587 130.169 8.94675 129.591 7.86274C129.015 6.77719 127.999 6.26449 127.321 6.68853L120.805 11.6521C120.433 11.9844 120.408 12.7362 120.759 13.4031" fill="#787878"/>
<path fill-rule="evenodd" clip-rule="evenodd" d="M116.637 21.1599C117.372 21.1599 117.98 21.5334 118.062 22.0152L118.79 30.0357C118.79 30.8278 117.837 31.4799 116.639 31.4799C115.443 31.4799 114.49 30.8278 114.49 30.0357L115.217 22.0152C115.297 21.5334 115.905 21.1599 116.642 21.1599" fill="#787878"/>
<path fill-rule="evenodd" clip-rule="evenodd" d="M120.757 17.7408C121.113 17.0731 121.725 16.7262 122.177 16.9082L129.393 20.5547C130.072 20.981 130.169 22.193 129.591 23.2784C129.015 24.3616 127.999 24.8758 127.321 24.4518L120.805 19.4885C120.433 19.1547 120.408 18.4038 120.759 17.7377" fill="#787878"/>
<path fill-rule="evenodd" clip-rule="evenodd" d="M111.66 17.7387C112.014 18.4049 111.987 19.1551 111.612 19.4898L105.097 24.4515C104.42 24.8755 103.404 24.3636 102.826 23.2802C102.25 22.1946 102.35 20.981 103.027 20.5546L110.24 16.9091C110.694 16.7248 111.308 17.0733 111.662 17.741" fill="#787878"/>
</svg>
